<svg width="128" height="128" viewBox="0 0 128 128" xmlns="http://www.w3.org/2000/svg">
    <defs>
      <linearGradient id="grad1" x1="0%" y1="0%" x2="100%" y2="100%">
        <stop offset="0%" style="stop-color:#0073b1;stop-opacity:1" />
        <stop offset="100%" style="stop-color:#005a85;stop-opacity:1" />
      </linearGradient>
    </defs>
    <circle cx="64" cy="64" r="62" fill="url(#grad1)" stroke="#003d5c" stroke-width="2"/>
    <g transform="translate(64,64)" fill="white">
      <ellipse cx="0" cy="0" rx="8" ry="12.8" fill="white"/>
      <g stroke="white" stroke-width="2" fill="none">
        <path d="M-8,-6.4 L-21.333333333333332,-12.8 L-28.444444444444443,-8"/>
        <path d="M-8,-2 L-25.6,-2 L-32,2"/>  
        <path d="M-8,2 L-25.6,2 L-32,6.4"/>
        <path d="M-8,6.4 L-21.333333333333332,12.8 L-28.444444444444443,16"/>
        <path d="M8,-6.4 L21.333333333333332,-12.8 L28.444444444444443,-8"/>
        <path d="M8,-2 L25.6,-2 L32,2"/>
        <path d="M8,2 L25.6,2 L32,6.4"/>
        <path d="M8,6.4 L21.333333333333332,12.8 L28.444444444444443,16"/>
      </g>
      <circle cx="-3.2" cy="-4.266666666666667" r="1.6" fill="white"/>
      <circle cx="3.2" cy="-4.266666666666667" r="1.6" fill="white"/>
    </g>
  </svg>