<svg width="128" height="128" viewBox="0 0 128 128" xmlns="http://www.w3.org/2000/svg">
  <defs>
    <linearGradient id="grad1" x1="0%" y1="0%" x2="100%" y2="100%">
      <stop offset="0%" style="stop-color:#0073b1;stop-opacity:1" />
      <stop offset="100%" style="stop-color:#005a85;stop-opacity:1" />
    </linearGradient>
  </defs>
  
  <!-- Background circle -->
  <circle cx="64" cy="64" r="60" fill="url(#grad1)" stroke="#003d5c" stroke-width="2"/>
  
  <!-- Spider/crawler icon -->
  <g transform="translate(64,64)" fill="white">
    <!-- Body -->
    <ellipse cx="0" cy="0" rx="8" ry="12" fill="white"/>
    
    <!-- Legs -->
    <g stroke="white" stroke-width="2" fill="none">
      <!-- Left legs -->
      <path d="M-8,-6 L-20,-12 L-28,-8"/>
      <path d="M-8,-2 L-24,-2 L-32,2"/>  
      <path d="M-8,2 L-24,2 L-32,6"/>
      <path d="M-8,6 L-20,12 L-28,16"/>
      
      <!-- Right legs -->
      <path d="M8,-6 L20,-12 L28,-8"/>
      <path d="M8,-2 L24,-2 L32,2"/>
      <path d="M8,2 L24,2 L32,6"/>
      <path d="M8,6 L20,12 L28,16"/>
    </g>
    
    <!-- Eyes -->
    <circle cx="-3" cy="-4" r="1.5" fill="white"/>
    <circle cx="3" cy="-4" r="1.5" fill="white"/>
    <circle cx="-2" cy="-1" r="1" fill="white"/>
    <circle cx="2" cy="-1" r="1" fill="white"/>
  </g>
  
  <!-- Night/moon accent -->
  <circle cx="96" cy="32" r="8" fill="rgba(255,255,255,0.3)"/>
  <circle cx="99" cy="29" r="6" fill="rgba(255,255,255,0.2)"/>
</svg>