<svg width="48" height="48" viewBox="0 0 48 48" xmlns="http://www.w3.org/2000/svg">
    <defs>
      <linearGradient id="grad1" x1="0%" y1="0%" x2="100%" y2="100%">
        <stop offset="0%" style="stop-color:#0073b1;stop-opacity:1" />
        <stop offset="100%" style="stop-color:#005a85;stop-opacity:1" />
      </linearGradient>
    </defs>
    <circle cx="24" cy="24" r="22" fill="url(#grad1)" stroke="#003d5c" stroke-width="2"/>
    <g transform="translate(24,24)" fill="white">
      <ellipse cx="0" cy="0" rx="3" ry="4.8" fill="white"/>
      <g stroke="white" stroke-width="1" fill="none">
        <path d="M-3,-2.4 L-8,-4.8 L-10.666666666666666,-3"/>
        <path d="M-3,-0.75 L-9.6,-0.75 L-12,0.75"/>  
        <path d="M-3,0.75 L-9.6,0.75 L-12,2.4"/>
        <path d="M-3,2.4 L-8,4.8 L-10.666666666666666,6"/>
        <path d="M3,-2.4 L8,-4.8 L10.666666666666666,-3"/>
        <path d="M3,-0.75 L9.6,-0.75 L12,0.75"/>
        <path d="M3,0.75 L9.6,0.75 L12,2.4"/>
        <path d="M3,2.4 L8,4.8 L10.666666666666666,6"/>
      </g>
      <circle cx="-1.2" cy="-1.6" r="0.6" fill="white"/>
      <circle cx="1.2" cy="-1.6" r="0.6" fill="white"/>
    </g>
  </svg>