<svg width="16" height="16" viewBox="0 0 16 16" xmlns="http://www.w3.org/2000/svg">
    <defs>
      <linearGradient id="grad1" x1="0%" y1="0%" x2="100%" y2="100%">
        <stop offset="0%" style="stop-color:#0073b1;stop-opacity:1" />
        <stop offset="100%" style="stop-color:#005a85;stop-opacity:1" />
      </linearGradient>
    </defs>
    <circle cx="8" cy="8" r="6" fill="url(#grad1)" stroke="#003d5c" stroke-width="2"/>
    <g transform="translate(8,8)" fill="white">
      <ellipse cx="0" cy="0" rx="1" ry="1.6" fill="white"/>
      <g stroke="white" stroke-width="1" fill="none">
        <path d="M-1,-0.8 L-2.6666666666666665,-1.6 L-3.5555555555555554,-1"/>
        <path d="M-1,-0.25 L-3.2,-0.25 L-4,0.25"/>  
        <path d="M-1,0.25 L-3.2,0.25 L-4,0.8"/>
        <path d="M-1,0.8 L-2.6666666666666665,1.6 L-3.5555555555555554,2"/>
        <path d="M1,-0.8 L2.6666666666666665,-1.6 L3.5555555555555554,-1"/>
        <path d="M1,-0.25 L3.2,-0.25 L4,0.25"/>
        <path d="M1,0.25 L3.2,0.25 L4,0.8"/>
        <path d="M1,0.8 L2.6666666666666665,1.6 L3.5555555555555554,2"/>
      </g>
      <circle cx="-0.4" cy="-0.5333333333333333" r="0.2" fill="white"/>
      <circle cx="0.4" cy="-0.5333333333333333" r="0.2" fill="white"/>
    </g>
  </svg>